<svg width="130" height="159" viewBox="0 0 130 159" fill="none" xmlns="http://www.w3.org/2000/svg">
<path d="M87.1329 33.7669C95.254 33.7669 102.078 28.2249 104.033 20.7179L109.5 21.5319C109.607 21.5479 109.715 21.5559 109.82 21.5559C110.871 21.5559 111.791 20.7859 111.951 19.7159C112.127 18.5379 111.312 17.4399 110.135 17.2649L104.594 16.4399C104.596 16.3939 104.598 16.3489 104.598 16.3019C104.598 16.1199 104.592 15.9399 104.584 15.7599C104.584 15.7599 104.133 9.24194 103.51 6.52294C102.889 3.80394 100.975 3.22694 100.975 3.22694C91.2049 1.01494 81.2029 0.78894 78.5999 0.78894C75.9969 0.78894 75.4419 2.12094 75.4419 2.12094L72.2919 7.11694L72.2819 7.11394C72.2059 7.23594 72.136 7.35894 72.063 7.48194L72.0359 7.52494C70.5339 10.1049 69.6689 13.1009 69.6689 16.3019C69.6679 25.9479 77.4879 33.7669 87.1329 33.7669Z" fill="white"/>
<path d="M125.535 73.076V73.074L98.7929 70.906L89.5469 49.794C89.5469 49.794 89.0859 47.02 83.5389 41.318C77.9899 35.616 66.7399 37.928 66.7399 37.928C66.7399 37.928 42.8539 42.397 34.9949 44.246C27.1349 46.096 26.8269 54.109 26.8269 54.109L26.1949 58.628L11.0169 55.687C10.8259 55.65 10.6359 55.632 10.4489 55.632C9.04195 55.632 7.77795 56.632 7.50095 58.061L0.0899456 96.303C-0.224054 97.923 0.843946 99.505 2.46495 99.819L53.6609 109.742C53.7759 109.764 53.8909 109.766 54.0069 109.775H54.0089C53.2809 109.879 52.7179 109.74 52.7179 109.74L43.3179 107.891L40.2359 124.996L16.6759 145.359C14.9749 146.72 13.8839 148.812 13.8839 151.16C13.8839 155.264 17.2099 158.59 21.3129 158.59C23.3479 158.59 25.1909 157.772 26.5329 156.445C26.5329 156.445 54.2579 134.395 56.1079 132.854C57.9579 131.314 58.8809 129.001 58.8809 129.001C58.8809 129.001 63.422 115.053 64.66 112.127C65.5079 110.123 69.5919 111.048 69.5919 111.048L92.4769 119.679L100.092 148.741C100.174 149.371 100.334 149.975 100.565 150.545H100.567C101.665 153.273 104.337 155.199 107.456 155.199C111.56 155.199 114.886 151.872 114.886 147.769C114.886 147.17 114.814 146.59 114.679 146.033C113.837 141.068 110.075 118.987 109.118 114.207C108.04 108.813 104.497 107.273 104.497 107.273C104.497 107.273 83.229 95.715 81.8429 94.944C80.4559 94.174 80.7649 92.17 80.7649 92.17L84.6949 77.839L87.4679 83.695C87.4679 83.695 89.087 86.969 91.5519 87.086L124.909 87.906C129.013 87.906 132.339 84.58 132.339 80.475C132.338 76.586 129.346 73.396 125.535 73.076ZM54.1039 57.807L52.3149 63.687L62.2129 65.606L41.9989 61.689L42.5469 59.193L54.1039 57.807ZM51.8549 103.28L6.55095 94.499L12.8209 62.146L25.3629 64.577L23.7449 76.144L23.1049 80.55C23.0999 80.576 23.0969 80.606 23.0929 80.632L23.0749 80.759H23.0769C23.0369 81.071 23.0139 81.388 23.0139 81.71C23.0139 85.814 26.3409 89.139 30.4439 89.139C34.5469 89.139 37.8729 85.814 37.8729 81.71C37.8729 81.392 37.8519 81.08 37.8119 80.773L40.7129 67.55L58.1259 70.924L51.8549 103.28Z" fill="white"/>
<path d="M19.0499 12.008H57.0769C58.1769 12.008 59.0769 11.112 59.0769 10.018C59.0769 8.92395 58.1769 8.02795 57.0769 8.02795H19.0499C17.9499 8.02795 17.0499 8.92395 17.0499 10.018C17.0499 11.112 17.9499 12.008 19.0499 12.008Z" fill="white"/>
<path d="M32.08 18.0249C30.98 18.0249 30.08 18.9209 30.08 20.0149C30.08 21.1089 30.98 22.0049 32.08 22.0049H55.039C56.139 22.0049 57.039 21.1089 57.039 20.0149C57.039 18.9199 56.139 18.0249 55.039 18.0249H32.08Z" fill="white"/>
</svg>
